<?xml version="1.0" standalone="no"?>
<!DOCTYPE svg PUBLIC "-//W3C//DTD SVG 20010904//EN"
 "http://www.w3.org/TR/2001/REC-SVG-20010904/DTD/svg10.dtd">
<svg version="1.0" xmlns="http://www.w3.org/2000/svg"
 width="744.000000pt" height="744.000000pt" viewBox="0 0 744.000000 744.000000"
 preserveAspectRatio="xMidYMid meet">
<metadata>
Created by potrace 1.14, written by Peter Selinger 2001-2017
</metadata>
<g transform="translate(0.000000,744.000000) scale(0.100000,-0.100000)"
fill="#000000" stroke="none">
<path d="M997 4761 c-238 -131 -364 -237 -423 -355 -44 -89 -50 -160 -22 -261
25 -89 64 -161 203 -365 166 -244 215 -353 215 -478 0 -49 -12 -73 -25 -52
-13 21 -81 47 -116 45 -47 -4 -121 -47 -160 -94 -27 -32 -30 -41 -25 -83 6
-57 21 -83 64 -110 47 -29 94 -25 170 13 170 84 298 194 348 296 24 49 29 72
31 146 3 127 -20 186 -174 437 -123 201 -174 298 -197 380 -49 173 -12 292
138 448 49 50 87 92 85 92 -2 0 -52 -27 -112 -59z"/>
<path d="M1970 4293 c-50 -26 -80 -76 -80 -133 0 -64 30 -105 115 -158 123
-75 141 -102 111 -161 -32 -60 -112 -70 -178 -21 l-30 22 -24 -23 -24 -23 22
-24 c36 -38 77 -54 137 -54 93 0 120 17 162 96 25 46 22 107 -6 149 -9 15 -49
48 -89 74 -102 67 -126 91 -126 128 0 68 92 94 159 46 l33 -24 21 22 c27 26
17 46 -37 74 -54 28 -123 32 -166 10z"/>
<path d="M2529 4296 c-40 -14 -88 -46 -110 -72 -13 -16 -15 -13 -19 27 -5 41
-7 44 -37 47 l-33 3 0 -285 0 -286 35 0 35 0 1 128 c1 239 19 302 101 356 37
24 115 25 150 3 55 -37 66 -96 67 -344 l1 -143 30 0 c37 0 38 2 44 202 5 184
20 230 88 276 58 38 136 37 178 -3 41 -39 48 -86 49 -357 l1 -118 36 0 36 0
-3 183 c-4 233 -10 279 -45 324 -37 49 -104 77 -165 70 -58 -7 -97 -26 -150
-74 l-40 -36 -30 37 c-58 69 -138 92 -220 62z"/>
<path d="M3535 4301 c-78 -19 -161 -87 -201 -164 -8 -15 -17 -63 -21 -106 -5
-70 -3 -84 19 -133 34 -73 79 -122 141 -152 63 -30 116 -37 187 -24 52 9 121
48 151 84 13 16 14 13 19 -27 5 -41 7 -44 38 -47 l32 -3 0 285 0 286 -35 0
-35 0 0 -51 0 -51 -46 41 c-69 60 -161 83 -249 62z m173 -90 c76 -39 115 -106
118 -201 2 -79 -17 -122 -77 -173 -39 -34 -54 -40 -120 -51 -79 -13 -178 45
-218 127 -56 116 8 271 130 313 45 15 122 8 167 -15z"/>
<path d="M4205 4294 c-16 -8 -42 -27 -57 -41 -28 -27 -33 -25 -40 22 -2 14
-12 21 -36 23 l-32 3 0 -285 0 -286 30 0 c17 0 33 6 35 13 2 6 7 75 9 152 7
172 13 219 37 267 26 52 55 68 131 77 4 1 17 11 28 23 20 21 20 23 4 35 -24
18 -73 16 -109 -3z"/>
<path d="M4585 4300 c-47 -10 -90 -36 -133 -81 -59 -60 -76 -101 -80 -197 -4
-73 -1 -89 22 -136 65 -132 216 -203 341 -161 28 10 69 30 93 46 24 16 45 29
48 29 2 0 4 -16 4 -35 0 -34 1 -35 40 -35 l41 0 -3 280 c-1 187 -5 281 -12
282 -33 4 -42 3 -53 -5 -7 -5 -13 -22 -13 -38 0 -16 -3 -29 -6 -29 -3 0 -23
13 -43 29 -20 15 -46 34 -59 40 -26 14 -142 21 -187 11z m185 -91 c42 -25 93
-90 110 -143 34 -106 -39 -234 -155 -273 -87 -29 -197 16 -250 101 -25 42 -30
59 -30 115 0 104 55 182 154 217 46 17 125 9 171 -17z"/>
<path d="M5332 4296 c-23 -8 -63 -31 -87 -51 l-45 -36 0 30 c0 36 -24 62 -53
57 -22 -3 -22 -4 -25 -284 l-3 -282 40 0 41 0 1 103 c2 270 2 270 29 307 33
47 57 66 107 86 83 32 167 -2 192 -79 10 -32 19 -173 20 -334 l1 -83 36 0 37
0 -5 214 c-5 211 -6 216 -32 261 -52 88 -152 124 -254 91z"/>
<path d="M5959 4296 c-82 -29 -139 -80 -182 -161 -16 -31 -21 -59 -21 -121 -1
-70 3 -87 29 -139 37 -73 104 -126 187 -150 96 -27 181 -6 262 66 l35 30 3
-43 c3 -40 5 -43 36 -46 l32 -3 0 285 0 286 -35 0 -35 0 0 -51 0 -51 -46 41
c-73 64 -181 87 -265 57z m203 -93 c23 -16 55 -45 71 -65 28 -35 30 -43 30
-126 0 -78 -3 -93 -24 -123 -49 -71 -106 -101 -189 -102 -186 -1 -289 221
-169 366 72 87 194 109 281 50z"/>
<path d="M6709 4296 c-40 -14 -88 -46 -110 -72 -13 -16 -15 -13 -19 27 -5 41
-7 44 -37 47 l-33 3 0 -285 0 -286 35 0 35 0 1 98 c1 210 7 260 34 310 49 90
151 125 221 75 51 -37 63 -102 64 -365 l0 -118 35 0 35 0 1 133 c0 218 10 267
66 321 67 65 169 68 212 8 26 -37 30 -79 31 -284 l0 -178 41 0 40 0 -2 187
c-3 232 -9 273 -48 322 -43 54 -91 75 -156 68 -62 -6 -102 -25 -155 -73 l-38
-35 -50 49 c-64 63 -123 77 -203 48z"/>
<path d="M3520 3601 c-7 -15 -6 -24 6 -36 19 -19 38 -15 42 9 4 18 -14 46 -29
46 -5 0 -13 -9 -19 -19z"/>
<path d="M5215 3600 c-6 -20 9 -50 26 -50 5 0 14 10 20 22 10 18 8 24 -7 35
-24 18 -32 16 -39 -7z"/>
<path d="M6265 3600 c-11 -17 25 -52 41 -40 6 6 11 19 10 28 -3 20 -41 29 -51
12z"/>
<path d="M1995 3475 c-44 -30 -41 -30 -49 -3 -4 18 -8 20 -18 10 -16 -16 -23
-288 -7 -298 20 -12 28 11 30 93 4 100 29 162 72 176 76 24 107 -24 107 -166
0 -53 4 -98 9 -102 15 -9 20 7 22 80 1 38 7 87 12 107 10 41 57 88 87 88 60 0
77 -36 79 -165 2 -99 13 -137 28 -99 12 30 8 208 -6 242 -12 29 -61 62 -93 62
-8 0 -36 -14 -63 -31 -26 -17 -51 -27 -54 -22 -39 52 -102 64 -156 28z"/>
<path d="M3185 3492 c-26 -6 -55 -40 -55 -66 0 -43 13 -64 55 -91 82 -51 95
-85 43 -114 -24 -14 -30 -14 -61 1 -29 14 -36 14 -40 3 -3 -7 2 -20 12 -29 49
-45 142 -12 154 54 7 41 -9 66 -67 105 -31 20 -56 40 -57 43 0 4 -2 15 -4 25
-5 27 35 42 76 28 36 -12 58 -1 35 18 -19 16 -67 28 -91 23z"/>
<path d="M3915 3487 c-79 -32 -115 -85 -115 -170 0 -36 6 -48 41 -84 43 -44
84 -60 148 -55 47 4 105 33 109 56 4 21 6 21 -81 -10 -84 -29 -159 8 -172 87
-15 87 24 137 114 144 39 4 56 0 83 -18 35 -24 58 -25 58 -2 0 40 -128 76
-185 52z"/>
<path d="M4614 3486 c-18 -8 -35 -19 -38 -25 -11 -17 -23 -13 -30 12 -6 20 -7
21 -19 5 -18 -23 -18 -289 0 -295 15 -5 21 20 27 124 5 89 20 123 62 141 37
18 58 15 83 -12 20 -21 23 -38 28 -133 9 -188 30 -152 42 73 2 44 71 91 116
80 33 -9 45 -41 51 -148 7 -115 15 -143 33 -111 14 27 8 210 -8 244 -31 63
-103 73 -168 23 -37 -28 -34 -29 -91 24 -17 16 -49 15 -88 -2z"/>
<path d="M5523 3480 c-52 -48 -42 -96 33 -151 62 -46 70 -59 54 -88 -15 -29
-52 -36 -88 -17 -31 16 -46 9 -37 -17 8 -18 66 -36 98 -30 33 6 65 41 73 78 4
24 -1 37 -23 61 -15 17 -42 39 -60 48 -46 23 -60 52 -37 77 20 22 42 24 79 7
33 -15 44 -3 19 22 -31 30 -85 35 -111 10z"/>
<path d="M5918 3484 c-16 -8 -29 -20 -29 -27 -1 -7 -3 -23 -4 -37 -4 -36 9
-55 70 -100 30 -22 55 -47 55 -55 0 -25 -43 -57 -67 -51 -73 18 -73 18 -73 3
0 -23 36 -39 84 -39 33 1 47 7 68 31 43 48 26 104 -43 143 -52 29 -76 70 -54
92 15 15 53 13 86 -4 24 -13 33 13 11 33 -27 23 -74 28 -104 11z"/>
<path d="M6624 3471 c-49 -33 -85 -101 -79 -149 8 -66 75 -136 141 -148 35 -6
88 12 125 43 87 73 68 207 -36 260 -50 26 -106 24 -151 -6z m134 -25 c59 -30
83 -124 47 -180 -18 -27 -72 -56 -105 -56 -60 0 -124 78 -114 139 9 51 16 61
57 86 48 28 76 31 115 11z"/>
<path d="M7221 3489 c-13 -5 -36 -18 -51 -29 l-29 -20 -3 22 c-2 13 -7 22 -13
21 -14 -4 -19 -303 -5 -303 15 0 18 15 23 118 5 86 8 96 33 123 46 49 118 48
144 0 5 -11 12 -57 15 -103 3 -46 8 -96 12 -112 5 -28 6 -29 19 -11 17 23 13
197 -6 238 -15 31 -67 67 -96 66 -11 0 -30 -5 -43 -10z"/>
<path d="M2625 3481 c-3 -6 -5 -54 -4 -107 4 -149 38 -200 134 -198 51 2 99
28 115 63 17 35 26 236 11 245 -17 11 -30 -35 -32 -116 -2 -99 -17 -134 -64
-147 -43 -12 -90 2 -106 30 -10 20 -16 59 -23 162 -4 59 -17 89 -31 68z"/>
<path d="M3536 3474 c-9 -24 -6 -283 4 -289 15 -9 20 27 20 160 0 123 -9 169
-24 129z"/>
<path d="M5227 3483 c-11 -10 -8 -291 2 -298 18 -10 23 16 28 137 6 145 -3
189 -30 161z"/>
<path d="M6282 3470 c-5 -14 -10 -82 -10 -151 -1 -100 1 -128 12 -132 8 -3 17
-3 20 0 3 4 6 67 6 142 0 139 -10 189 -28 141z"/>
<path d="M80 3165 c0 -16 68 -139 108 -195 84 -118 190 -210 318 -274 130 -64
201 -80 369 -80 182 1 239 13 385 86 90 45 118 65 196 143 92 92 167 195 203
278 24 56 13 61 -21 10 -51 -77 -173 -184 -268 -235 -55 -30 -139 -63 -200
-79 -25 -6 -54 -14 -65 -16 -11 -3 -101 -7 -200 -9 -268 -4 -403 28 -579 140
-64 42 -211 185 -221 216 -6 18 -25 29 -25 15z"/>
</g>
</svg>
